# xmcd
# 
# Track frame offsets:
#     182
#     17980
#     37242
#     77917
#     92145
#     110670
#     129757
#     149037
#     166315
#     187705
#     218827
#     237117
#     257087
#     282015
#     302077
#     312082
#     328945
#     338992
# 
# Disc length: 4676
# 
# Revision: 14
# Processed by: cddbd v1.5.2PL0 Copyright (c) Steve Scherf et al.
# Submitted via: fre:ac v1.0.27
# 
DISCID=05124212
DTITLE=Harmonia - Harmonia - Le Chant Des Rêves - CD1
DYEAR=1998
DGENRE=New Age
TTITLE0=01 - Adiemus - Karl Jenkins - Adiemus (Musique du spot TV "Delta Airlines")
TTITLE1=02 - Era - Ameno
TTITLE2=03 - Vangelis - To The Unknown Man
TTITLE3=04 - Jean-Michel Jarre - Oxygene
TTITLE4=05 - Enigma - Sadeness Part 1
TTITLE5=06 - Deep Forest - Marta's Song
TTITLE6=07 - Mike Oldfield - Tubular Bells
TTITLE7=08 - Yanni - Adagio In C Minor
TTITLE8=09 - Eric Serra - The Big Blue Overture (Musique du film "Le Grand Bleu")
TTITLE9=10 - Dead Can Dance - Yulunga (Spirit Dance)
TTITLE10=11 - Indian Sacred Spirits - Yehe Noha
TTITLE11=12 - Noa - I Don't Know
TTITLE12=13 - Kitaro - Oasis
TTITLE13=14 - I Muvrini - Un Ti Ne Scurda
TTITLE14=15 - Ennio Morricone - Gabriel's Oboe (Musique du film "The Mission")
TTITLE15=16 - Madredeus - O Pastor
TTITLE16=17 - Microcosmos - Microcosmos (Musique du film "Microcosmos")
TTITLE17=18 - Serge Perathoner - Ushuaïa (Musique du générique TV "Ushuaïa")
EXTD=YEAR: 1998
EXTT0=
EXTT1=
EXTT2=
EXTT3=
EXTT4=
EXTT5=
EXTT6=
EXTT7=
EXTT8=
EXTT9=
EXTT10=
EXTT11=
EXTT12=
EXTT13=
EXTT14=
EXTT15=
EXTT16=
EXTT17=
PLAYORDER=
